<svg xmlns="http://www.w3.org/2000/svg" width="85" height="81" viewBox="0 0 85 81"><defs><mask id="77crb" width="2" height="2" x="-1" y="-1"><path fill="#fff" d="M10 5h70v68H10z"/><path d="M41.893 5.33S24.266 8.818 16.735 21.008c0 0-8.168 12.529-6.486 25.936 0 0 .296 19.223 19.065 20.905 0 0 5.42.193 14.741 3.872 0 0 10.931 2.186 19.261-3.29 0 0 18.894-14.568 16.51-34.454 0 0-7.357-22.865-16.51-24.776 0 0-11.498-5.064-21.423-3.87z"/></mask><filter id="77cra" width="112.6" height="109.5" x="-12.6" y="-15" filterUnits="userSpaceOnUse"><feOffset dx="-2.6" dy="1.5" in="SourceGraphic" result="FeOffset1112Out"/><feGaussianBlur in="FeOffset1112Out" result="FeGaussianBlur1113Out" stdDeviation="4 4"/></filter></defs><g><g opacity=".64"><g filter="url(#77cra)"><path fill="none" d="M41.893 5.33S24.266 8.818 16.735 21.008c0 0-8.168 12.529-6.486 25.936 0 0 .296 19.223 19.065 20.905 0 0 5.42.193 14.741 3.872 0 0 10.931 2.186 19.261-3.29 0 0 18.894-14.568 16.51-34.454 0 0-7.357-22.865-16.51-24.776 0 0-11.498-5.064-21.423-3.87z" mask="url(&quot;#77crb&quot;)"/><path fill-opacity=".08" d="M41.893 5.33S24.266 8.818 16.735 21.008c0 0-8.168 12.529-6.486 25.936 0 0 .296 19.223 19.065 20.905 0 0 5.42.193 14.741 3.872 0 0 10.931 2.186 19.261-3.29 0 0 18.894-14.568 16.51-34.454 0 0-7.357-22.865-16.51-24.776 0 0-11.498-5.064-21.423-3.87z"/></g><path fill="#fff" d="M41.893 5.33S24.266 8.818 16.735 21.008c0 0-8.168 12.529-6.486 25.936 0 0 .296 19.223 19.065 20.905 0 0 5.42.193 14.741 3.872 0 0 10.931 2.186 19.261-3.29 0 0 18.894-14.568 16.51-34.454 0 0-7.357-22.865-16.51-24.776 0 0-11.498-5.064-21.423-3.87z"/></g><g opacity=".8"><path fill="#222" d="M55.032 39.43c.137-.001.222.061.264.166.26.514-.589 2.035-1.227 1.986l-2.433.024-16.898.17c-.473.006-.337-.655.001-1.245a2.418 2.418 0 0 1-.074-.989c.026-.196.094-.565.256-.72l.881-.84L42 32.081c.388-.37.656.057.76.431.082.292.096.63.057.928-.026.196-.094.565-.256.72l-.882.84-4.736 4.511a111.313 111.313 0 0 1 18.09-.081z"/></g></g></svg>