<svg xmlns="http://www.w3.org/2000/svg" width="84" height="81" viewBox="0 0 84 81"><defs><mask id="jpyqb" width="2" height="2" x="-1" y="-1"><path fill="#fff" d="M10 6h70v67H10z"/><path d="M48.138 6.174s17.627 3.488 25.158 15.678c0 0 8.169 12.528 6.486 25.936 0 0-.296 19.223-19.065 20.905 0 0-5.42.193-14.74 3.871 0 0-10.932 2.186-19.262-3.29 0 0-18.894-14.567-16.51-34.453 0 0 7.357-22.865 16.51-24.776 0 0 11.498-5.064 21.423-3.871z"/></mask><filter id="jpyqa" width="112.6" height="108.5" x="-12.6" y="-14" filterUnits="userSpaceOnUse"><feOffset dx="-2.6" dy="1.5" in="SourceGraphic" result="FeOffset1137Out"/><feGaussianBlur in="FeOffset1137Out" result="FeGaussianBlur1138Out" stdDeviation="4 4"/></filter></defs><g><g opacity=".64"><g filter="url(#jpyqa)"><path fill="none" d="M48.138 6.174s17.627 3.488 25.158 15.678c0 0 8.169 12.528 6.486 25.936 0 0-.296 19.223-19.065 20.905 0 0-5.42.193-14.74 3.871 0 0-10.932 2.186-19.262-3.29 0 0-18.894-14.567-16.51-34.453 0 0 7.357-22.865 16.51-24.776 0 0 11.498-5.064 21.423-3.871z" mask="url(&quot;#jpyqb&quot;)"/><path fill-opacity=".08" d="M48.138 6.174s17.627 3.488 25.158 15.678c0 0 8.169 12.528 6.486 25.936 0 0-.296 19.223-19.065 20.905 0 0-5.42.193-14.74 3.871 0 0-10.932 2.186-19.262-3.29 0 0-18.894-14.567-16.51-34.453 0 0 7.357-22.865 16.51-24.776 0 0 11.498-5.064 21.423-3.871z"/></g><path fill="#fff" d="M48.138 6.174s17.627 3.488 25.158 15.678c0 0 8.169 12.528 6.486 25.936 0 0-.296 19.223-19.065 20.905 0 0-5.42.193-14.74 3.871 0 0-10.932 2.186-19.262-3.29 0 0-18.894-14.567-16.51-34.453 0 0 7.357-22.865 16.51-24.776 0 0 11.498-5.064 21.423-3.871z"/></g><g opacity=".8"><path fill="#222" d="M55.294 42.62l-16.9-.17-2.432-.025c-.638.05-1.486-1.471-1.227-1.986.042-.104.127-.167.265-.165a111.313 111.313 0 0 1 18.09.081l-4.737-4.512-.882-.84c-.161-.154-.23-.523-.255-.72a2.416 2.416 0 0 1 .056-.927c.104-.374.372-.801.76-.432l6.197 5.902.882.84c.161.154.23.524.255.72a2.42 2.42 0 0 1-.074.988c.338.591.474 1.251.002 1.246z"/></g></g></svg>